<svg id="Layer_1" data-name="Layer 1" xmlns="http://www.w3.org/2000/svg" width="256" height="256" viewBox="0 0 256 256"><title>behance</title><rect x="166" y="69.8" width="51.8" height="13.59" fill="#fff" stroke="#000" stroke-miterlimit="10"/><path d="M36.2,189.6V64.7H83.7c31.7,0,48.3,9.9,48.3,30.7,0,12.4-6.3,24.7-24.1,28.6,18.6,3.1,27.8,15.3,27.8,29.5,0,19.9-15.5,36.1-46.1,36.1Zm43.5-73.9c13.2,0,22.8-3.7,22.8-16S90.7,84.4,78.9,84.4h-13v31.3Zm3.8,53.4c13.9,0,22-5.9,22-17.8S93.7,135,79.7,135H65.9v34.1Z" fill="#fff" stroke="#000" stroke-miterlimit="10"/><path d="M176,147c1.1,14.5,7.2,22.3,18.3,22.3s14.9-5.4,16.4-12.9H240c-3.9,21.3-19.7,34.4-44.6,34.4-30.4,0-49.2-18.2-49.2-49.2s19.2-51,49.2-51c26.9,0,45.3,15.7,45.3,47.7l-.5,8.7Zm35-16.8c-1.2-11.4-5.9-18.4-16.7-18.4s-15.9,6.8-17.7,18.4Z" fill="#fff" stroke="#000" stroke-miterlimit="10"/></svg>