<svg id="Layer_1" data-name="Layer 1" xmlns="http://www.w3.org/2000/svg" xmlns:xlink="http://www.w3.org/1999/xlink" viewBox="0 0 267.94 261.67"><defs><style>.cls-1{fill:url(#linear-gradient);}.cls-2{fill:url(#linear-gradient-2);}.cls-3{fill:url(#linear-gradient-3);}.cls-4{fill:#fff;}</style><linearGradient id="linear-gradient" x1="-793.65" y1="493.93" x2="-793.65" y2="493.35" gradientTransform="matrix(385, 0, 0, -385, 305687.61, 190179.43)" gradientUnits="userSpaceOnUse"><stop offset="0" stop-color="#a04e9d"/><stop offset="1" stop-color="#8954a2"/></linearGradient><linearGradient id="linear-gradient-2" x1="-780.31" y1="489.77" x2="-780.31" y2="489.19" gradientTransform="matrix(50, 0, 0, -50, 39113.01, 24501.54)" gradientUnits="userSpaceOnUse"><stop offset="0" stop-color="#8c53a1"/><stop offset="1" stop-color="#9b4f9d"/></linearGradient><linearGradient id="linear-gradient-3" x1="-783.58" y1="490.84" x2="-783.58" y2="490.27" gradientTransform="matrix(50, 0, 0, -50, 39418.01, 24746.54)" xlink:href="#linear-gradient-2"/></defs><circle id="Ellipse_5" data-name="Ellipse 5" class="cls-1" cx="133.08" cy="128.67" r="111.49"/><circle id="Ellipse_9" data-name="Ellipse 9" class="cls-2" cx="97.46" cy="27.6" r="14.48"/><circle id="Ellipse_10" data-name="Ellipse 10" class="cls-3" cx="239.16" cy="218.8" r="14.48"/><g id="branding"><path id="Path_4" data-name="Path 4" class="cls-4" d="M55.18,116.71v42.75h83.31V116.71Zm13.4,20.07a6.07,6.07,0,1,1,6-6.08v0A6.06,6.06,0,0,1,68.58,136.78Z"/><path id="Path_5" data-name="Path 5" class="cls-4" d="M144.58,80v97.91h67V80Zm54.53,15.9a6.07,6.07,0,1,1,6.06-6.07h0A6.06,6.06,0,0,1,199.11,95.87Z"/><path id="Path_6" data-name="Path 6" class="cls-4" d="M137.31,95.87H109a1.18,1.18,0,0,0-1.2,1.16v13.5a1.18,1.18,0,0,0,1.18,1.18h28.31a1.18,1.18,0,0,0,1.18-1.18h0V97.05a1.18,1.18,0,0,0-1.18-1.18Zm-22,12a5,5,0,1,1,5-5,5,5,0,0,1-5,5Z"/><path id="Path_7" data-name="Path 7" class="cls-4" d="M131.79,163.16H57.6v3.9h74.2l4.9-1.95Z"/><path id="Path_8" data-name="Path 8" class="cls-4" d="M131.79,170.75H57.6v3.9h74.2l4.9-2Z"/></g></svg>