<svg xmlns="http://www.w3.org/2000/svg" xmlns:xlink="http://www.w3.org/1999/xlink" id="Layer_1" viewBox="0 0 267.94 261.67" width="267.94" height="261.67"><defs><style>.cls-1{fill:url(#linear-gradient)}.cls-2{fill:url(#linear-gradient-2)}.cls-3{fill:url(#linear-gradient-3)}.cls-4{fill:#fff}</style><linearGradient id="linear-gradient" x1="-793.65" x2="-793.65" y1="493.93" y2="493.35" gradientTransform="matrix(385 0 0 -385 305687.61 190179.43)" gradientUnits="userSpaceOnUse"><stop offset="0" stop-color="#a04e9d"/><stop offset="1" stop-color="#8954a2"/></linearGradient><linearGradient id="linear-gradient-2" x1="-780.31" x2="-780.31" y1="489.77" y2="489.19" gradientTransform="matrix(50 0 0 -50 39113.01 24501.54)" gradientUnits="userSpaceOnUse"><stop offset="0" stop-color="#8c53a1"/><stop offset="1" stop-color="#9b4f9d"/></linearGradient><linearGradient id="linear-gradient-3" x1="-783.58" x2="-783.58" y1="490.84" y2="490.27" gradientTransform="matrix(50 0 0 -50 39418.01 24746.54)" xlink:href="#linear-gradient-2"/></defs><circle id="Ellipse_5" cx="133.08" cy="128.67" r="111.49" class="cls-1"/><circle id="Ellipse_9" cx="97.46" cy="27.6" r="14.48" class="cls-2"/><circle id="Ellipse_10" cx="239.16" cy="218.8" r="14.48" class="cls-3"/><g id="branding"><path id="Path_4" d="M55.18 116.71v42.75h83.31v-42.75zm13.4 20.07a6.07 6.07 0 1 1 6-6.08 6.06 6.06 0 0 1-6 6.08z" class="cls-4"/><path id="Path_5" d="M144.58 80v97.91h67V80zm54.53 15.9a6.07 6.07 0 1 1 6.06-6.07 6.06 6.06 0 0 1-6.06 6.04z" class="cls-4"/><path id="Path_6" d="M137.31 95.87H109a1.18 1.18 0 0 0-1.2 1.16v13.5a1.18 1.18 0 0 0 1.18 1.18h28.31a1.18 1.18 0 0 0 1.18-1.18V97.05a1.18 1.18 0 0 0-1.18-1.18zm-22 12a5 5 0 1 1 5-5 5 5 0 0 1-5 5z" class="cls-4"/><path id="Path_7" d="M131.79 163.16H57.6v3.9h74.2l4.9-1.95z" class="cls-4"/><path id="Path_8" d="M131.79 170.75H57.6v3.9h74.2l4.9-2z" class="cls-4"/></g></svg>