<svg xmlns="http://www.w3.org/2000/svg" xmlns:xlink="http://www.w3.org/1999/xlink"><symbol id="branding" viewBox="0 0 267.94 261.67"><defs><style>.cls-1{fill:url(#linear-gradient)}.cls-2{fill:url(#linear-gradient-2)}.cls-3{fill:url(#linear-gradient-3)}.cls-4{fill:#fff}</style><linearGradient id="linear-gradient" x1="-793.65" x2="-793.65" y1="493.93" y2="493.35" gradientTransform="matrix(385 0 0 -385 305687.61 190179.43)" gradientUnits="userSpaceOnUse"><stop offset="0" stop-color="#a04e9d"/><stop offset="1" stop-color="#8954a2"/></linearGradient><linearGradient id="linear-gradient-2" x1="-780.31" x2="-780.31" y1="489.77" y2="489.19" gradientTransform="matrix(50 0 0 -50 39113.01 24501.54)" gradientUnits="userSpaceOnUse"><stop offset="0" stop-color="#8c53a1"/><stop offset="1" stop-color="#9b4f9d"/></linearGradient><linearGradient id="linear-gradient-3" x1="-783.58" x2="-783.58" y1="490.84" y2="490.27" gradientTransform="matrix(50 0 0 -50 39418.01 24746.54)" xlink:href="#linear-gradient-2"/></defs><circle id="Ellipse_5" cx="133.08" cy="128.67" r="111.49" class="cls-1"/><circle id="Ellipse_9" cx="97.46" cy="27.6" r="14.48" class="cls-2"/><circle id="Ellipse_10" cx="239.16" cy="218.8" r="14.48" class="cls-3"/><g id="branding"><path id="Path_4" d="M55.18 116.71v42.75h83.31v-42.75zm13.4 20.07a6.07 6.07 0 1 1 6-6.08 6.06 6.06 0 0 1-6 6.08z" class="cls-4"/><path id="Path_5" d="M144.58 80v97.91h67V80zm54.53 15.9a6.07 6.07 0 1 1 6.06-6.07 6.06 6.06 0 0 1-6.06 6.04z" class="cls-4"/><path id="Path_6" d="M137.31 95.87H109a1.18 1.18 0 0 0-1.2 1.16v13.5a1.18 1.18 0 0 0 1.18 1.18h28.31a1.18 1.18 0 0 0 1.18-1.18V97.05a1.18 1.18 0 0 0-1.18-1.18zm-22 12a5 5 0 1 1 5-5 5 5 0 0 1-5 5z" class="cls-4"/><path id="Path_7" d="M131.79 163.16H57.6v3.9h74.2l4.9-1.95z" class="cls-4"/><path id="Path_8" d="M131.79 170.75H57.6v3.9h74.2l4.9-2z" class="cls-4"/></g></symbol><symbol id="motion" viewBox="0 0 267.94 261.67"><defs><style>.cls-1{fill:url(#linear-gradient)}.cls-2{fill:url(#linear-gradient-2)}.cls-3{fill:url(#linear-gradient-3)}.cls-4{fill:#fff}.cls-5{fill:#8a53a1}</style><linearGradient id="linear-gradient" x1="-152.3" x2="-152.3" y1="493.95" y2="493.42" gradientTransform="matrix(385 0 0 -385 58772.06 190198.43)" gradientUnits="userSpaceOnUse"><stop offset="0" stop-color="#a04e9d"/><stop offset="1" stop-color="#8954a2"/></linearGradient><linearGradient id="linear-gradient-2" x1="-152.65" x2="-152.65" y1="489.82" y2="489.29" gradientTransform="matrix(51 0 0 -51 8011.84 24996.08)" gradientUnits="userSpaceOnUse"><stop offset="0" stop-color="#8c53a1"/><stop offset="1" stop-color="#9b4f9d"/></linearGradient><linearGradient id="linear-gradient-3" x1="-144.04" x2="-144.04" y1="490.84" y2="490.31" gradientTransform="matrix(20 0 0 -20 2906.56 10020.34)" xlink:href="#linear-gradient-2"/></defs><circle id="Ellipse_3" cx="137.91" cy="131.13" r="102.16" class="cls-1"/><circle id="Ellipse_6" cx="226.53" cy="28.7" r="13.53" class="cls-2"/><circle id="Ellipse_11" cx="25.67" cy="208.87" r="5.31" class="cls-3"/><g id="motion"><circle id="Ellipse_21" cx="138.12" cy="133" r="22.24" class="cls-4"/><path id="Path_3" d="M197.25 78.32V86h-11.18v-7.7h-5.72v8.94H96.11v-8.92h-6.46v7.91H79v-7.91h-6v106.11h5.72v-7h10.97v7h5.72V175h84.94v10.19h5.23v-7.46h11.87v7.46h5.72V78.32zM89 159.77h-9.77v-9.08H89zm0-25.47h-9.77v-9.08H89zm0-25.47h-9.77v-9.08H89zm92.58 51.36a6.1 6.1 0 0 1-6.1 6.09H102.7a6.08 6.08 0 0 1-6.08-6.07v-57.29a6.06 6.06 0 0 1 6-6.08h72.78a6.08 6.08 0 0 1 6.1 6.06v57.29zm16-.42h-9.74v-9.08h9.74zm0-25.47h-9.74v-9.08h9.74zm0-25.47h-9.74v-9.08h9.74z" class="cls-4"/></g><path id="Polygon_1" d="M151.44 133l-21.23 11.94v-23.88z" class="cls-5"/></symbol><symbol id="logo" viewBox="0 0 443.88 213.93"><defs><style>.cls-1{fill:url(#linear-gradient)}.cls-2{fill:url(#linear-gradient-2)}</style><linearGradient id="linear-gradient" x1="428.12" x2="433.35" y1="163.06" y2="137.3" gradientUnits="userSpaceOnUse"><stop offset="0" stop-color="#55278f"/><stop offset="1" stop-color="#9c2790"/></linearGradient><linearGradient id="linear-gradient-2" x1="93.18" x2="532.84" y1="167.02" y2="167.02" xlink:href="#linear-gradient"/></defs><circle cx="430.73" cy="150.18" r="13.14" class="cls-1"/><path d="M433.22 231.12a5.09 5.09 0 0 1-4.43-2.58c-1-1.7-2.35-4.19-4.07-7.33C406.2 185.7 383 135.85 368 84.37c-.31-1.05-.54-1.87-.72-2.43a30.81 30.81 0 0 0-29-21.88A29.86 29.86 0 0 0 311 76.26c-2.68 4.36-4.75 10.37-8.55 21.41-8.62 25.09-25.82 75.09-55.34 111.08-5.35 5.95-12.31 14.53-16.81 16.91q-12.22 6.5-29.91 6.48A56.63 56.63 0 0 1 157.27 213 65.51 65.51 0 0 1 145 192.37a70.69 70.69 0 0 1-4.42-25.05v-.59a69.52 69.52 0 0 1 4.42-24.9 64.68 64.68 0 0 1 12.37-20.47 56.8 56.8 0 0 1 19-13.85 57.47 57.47 0 0 1 24-5 62.61 62.61 0 0 1 28.14 6.19 105.12 105.12 0 0 1 20.86 13.83 5.07 5.07 0 0 0 7.07-.58l22.39-25.81a5.07 5.07 0 0 0-.36-7 123 123 0 0 0-11.8-9.58 93.85 93.85 0 0 0-18-10A110.15 110.15 0 0 0 227.1 63a136.57 136.57 0 0 0-26.37-2.36q-23.86 0-43.61 8.4a102.41 102.41 0 0 0-33.89 23 107.17 107.17 0 0 0-30 75.28v.59a108.59 108.59 0 0 0 8 41.55 101.63 101.63 0 0 0 55.69 56.27A106.71 106.71 0 0 0 199 274a134.08 134.08 0 0 0 27.11-2.5 96.49 96.49 0 0 0 22.24-7.37A97.92 97.92 0 0 0 267 252.48a30 30 0 0 0 5.5-5.48 2.69 2.69 0 0 1 .27-.32c28.38-30.49 47.3-70.28 59.58-101.52a5.08 5.08 0 0 1 9.48.05c15.21 40.07 32.28 74.51 46 105.33l9.78 19.27a5.08 5.08 0 0 0 4.53 2.78h125.62a5.07 5.07 0 0 0 5.08-5.08V236.2a5.07 5.07 0 0 0-5.08-5.08z" class="cls-2" transform="translate(-93.18 -60.06)"/></symbol><symbol id="illustration" viewBox="0 0 267.94 261.67"><defs><style>.cls-1{fill:url(#linear-gradient)}.cls-2{fill:url(#linear-gradient-2)}.cls-3{fill:url(#linear-gradient-3)}.cls-4{fill:#fff}</style><linearGradient id="linear-gradient" x1="-476.42" x2="-476.42" y1="494.01" y2="493.44" gradientTransform="matrix(385 0 0 -385 183557.42 190217.43)" gradientUnits="userSpaceOnUse"><stop offset="0" stop-color="#a04e9d"/><stop offset="1" stop-color="#8954a2"/></linearGradient><linearGradient id="linear-gradient-2" x1="-472.13" x2="-472.13" y1="493.07" y2="492.5" gradientTransform="matrix(64 0 0 -64 30448.89 31726.1)" gradientUnits="userSpaceOnUse"><stop offset="0" stop-color="#8c53a1"/><stop offset="1" stop-color="#9b4f9d"/></linearGradient><linearGradient id="linear-gradient-3" x1="-464.93" x2="-464.93" y1="488.4" y2="487.83" gradientTransform="matrix(38 0 0 -38 17724.52 18567.06)" xlink:href="#linear-gradient-2"/></defs><circle id="Ellipse_4" cx="134.29" cy="133.83" r="109.31" class="cls-1"/><circle id="Ellipse_7" cx="232.82" cy="188.07" r="18.17" class="cls-2"/><circle id="Ellipse_8" cx="57.35" cy="18.75" r="10.79" class="cls-3"/><g id="illustration"><path id="Path_9" d="M168.58 73.94l-29.08 36.37v73.78h13.71v-59.46H161v59.46h17.6v-59.46h7.74v59.46h12.13V111.5z" class="cls-4"/><path id="Path_10" d="M121.5 183.85l-8.09-31-1-16h-30v14.42l-8.69 32.59z" class="cls-4"/><path id="Path_11" d="M80.21 133.43S68 126.57 69.57 115.11s10.28-19.75 17.27-26.66S91 76.6 96.12 76.6s24.32 12.15 27.65 25.9c6.13 25.28-8.27 30.89-8.27 30.89z" class="cls-4"/></g></symbol></svg>