<svg xmlns="http://www.w3.org/2000/svg" xmlns:xlink="http://www.w3.org/1999/xlink" id="Layer_1" viewBox="0 0 267.94 261.67" width="267.94" height="261.67"><defs><style>.cls-1{fill:url(#linear-gradient)}.cls-2{fill:url(#linear-gradient-2)}.cls-3{fill:url(#linear-gradient-3)}.cls-4{fill:#fff}</style><linearGradient id="linear-gradient" x1="-476.42" x2="-476.42" y1="494.01" y2="493.44" gradientTransform="matrix(385 0 0 -385 183557.42 190217.43)" gradientUnits="userSpaceOnUse"><stop offset="0" stop-color="#a04e9d"/><stop offset="1" stop-color="#8954a2"/></linearGradient><linearGradient id="linear-gradient-2" x1="-472.13" x2="-472.13" y1="493.07" y2="492.5" gradientTransform="matrix(64 0 0 -64 30448.89 31726.1)" gradientUnits="userSpaceOnUse"><stop offset="0" stop-color="#8c53a1"/><stop offset="1" stop-color="#9b4f9d"/></linearGradient><linearGradient id="linear-gradient-3" x1="-464.93" x2="-464.93" y1="488.4" y2="487.83" gradientTransform="matrix(38 0 0 -38 17724.52 18567.06)" xlink:href="#linear-gradient-2"/></defs><circle id="Ellipse_4" cx="134.29" cy="133.83" r="109.31" class="cls-1"/><circle id="Ellipse_7" cx="232.82" cy="188.07" r="18.17" class="cls-2"/><circle id="Ellipse_8" cx="57.35" cy="18.75" r="10.79" class="cls-3"/><g id="illustration"><path id="Path_9" d="M168.58 73.94l-29.08 36.37v73.78h13.71v-59.46H161v59.46h17.6v-59.46h7.74v59.46h12.13V111.5z" class="cls-4"/><path id="Path_10" d="M121.5 183.85l-8.09-31-1-16h-30v14.42l-8.69 32.59z" class="cls-4"/><path id="Path_11" d="M80.21 133.43S68 126.57 69.57 115.11s10.28-19.75 17.27-26.66S91 76.6 96.12 76.6s24.32 12.15 27.65 25.9c6.13 25.28-8.27 30.89-8.27 30.89z" class="cls-4"/></g></svg>