<svg id="Layer_1" data-name="Layer 1" xmlns="http://www.w3.org/2000/svg" xmlns:xlink="http://www.w3.org/1999/xlink" viewBox="0 0 267.94 261.67"><defs><style>.cls-1{fill:url(#linear-gradient);}.cls-2{fill:url(#linear-gradient-2);}.cls-3{fill:url(#linear-gradient-3);}.cls-4{fill:#fff;}</style><linearGradient id="linear-gradient" x1="-476.42" y1="494.01" x2="-476.42" y2="493.44" gradientTransform="matrix(385, 0, 0, -385, 183557.42, 190217.43)" gradientUnits="userSpaceOnUse"><stop offset="0" stop-color="#a04e9d"/><stop offset="1" stop-color="#8954a2"/></linearGradient><linearGradient id="linear-gradient-2" x1="-472.13" y1="493.07" x2="-472.13" y2="492.5" gradientTransform="matrix(64, 0, 0, -64, 30448.89, 31726.1)" gradientUnits="userSpaceOnUse"><stop offset="0" stop-color="#8c53a1"/><stop offset="1" stop-color="#9b4f9d"/></linearGradient><linearGradient id="linear-gradient-3" x1="-464.93" y1="488.4" x2="-464.93" y2="487.83" gradientTransform="matrix(38, 0, 0, -38, 17724.52, 18567.06)" xlink:href="#linear-gradient-2"/></defs><circle id="Ellipse_4" data-name="Ellipse 4" class="cls-1" cx="134.29" cy="133.83" r="109.31"/><circle id="Ellipse_7" data-name="Ellipse 7" class="cls-2" cx="232.82" cy="188.07" r="18.17"/><circle id="Ellipse_8" data-name="Ellipse 8" class="cls-3" cx="57.35" cy="18.75" r="10.79"/><g id="illustration"><path id="Path_9" data-name="Path 9" class="cls-4" d="M168.58,73.94,139.5,110.31v73.78h13.71V124.63H161v59.46H178.6V124.63h7.74v59.46h12.13V111.5Z"/><path id="Path_10" data-name="Path 10" class="cls-4" d="M121.5,183.85l-8.09-31-1-16h-30v14.42l-8.69,32.59Z"/><path id="Path_11" data-name="Path 11" class="cls-4" d="M80.21,133.43S68,126.57,69.57,115.11,79.85,95.36,86.84,88.45,91,76.6,96.12,76.6s24.32,12.15,27.65,25.9c6.13,25.28-8.27,30.89-8.27,30.89Z"/></g></svg>