<?xml version="1.0" encoding="UTF-8"?>
<svg id="Layer_1" xmlns="http://www.w3.org/2000/svg" viewBox="0 0 342 342">
  <defs>
    <style>
      .cls-1 {
        font-family: AzoSans-Medium, 'Azo Sans';
        font-size: 24.15px;
        font-weight: 500;
      }

      .cls-1, .cls-2 {
        fill: #645dd7;
      }

      .cls-3 {
        letter-spacing: -.01em;
      }

      .cls-4 {
        letter-spacing: -.09em;
      }

      .cls-5 {
        letter-spacing: -.1em;
      }

      .cls-6 {
        letter-spacing: 0em;
      }
    </style>
  </defs>
  <path class="cls-2" d="M294,190.86c0,4.03-3.27,7.3-7.3,7.3s-7.3-3.27-7.3-7.3,3.27-7.3,7.3-7.3,7.3,3.27,7.3,7.3"/>
  <path class="cls-2" d="M236.3,206.74c-1.02,0-1.96-.55-2.46-1.44-.53-.94-1.3-2.33-2.26-4.07-10.29-19.73-23.19-47.43-31.5-76.03-.17-.59-.3-1.04-.4-1.35-2.17-7.12-8.63-12-16.09-12.15-6.48-.13-12.32,3.41-15.17,9-1.49,2.42-2.64,5.76-4.75,11.9-4.79,13.94-14.35,41.72-30.75,61.72-2.98,3.3-6.84,8.07-9.34,9.39-4.53,2.4-10.07,3.6-16.62,3.6-4.91,0-9.41-.95-13.51-2.86-4.09-1.91-7.59-4.5-10.48-7.78-2.89-3.27-5.16-7.09-6.79-11.46-1.64-4.36-2.46-9-2.46-13.92v-.33c0-4.91.82-9.52,2.46-13.83,1.64-4.31,3.93-8.1,6.88-11.38,2.95-3.27,6.47-5.84,10.56-7.69,4.09-1.85,8.54-2.78,13.34-2.78,5.78,0,10.99,1.15,15.63,3.44,3.92,1.94,7.78,4.5,11.59,7.69,1.17.98,2.93.83,3.93-.32l12.43-14.34c.99-1.15.92-2.88-.2-3.91-2.06-1.9-4.25-3.67-6.55-5.32-3.06-2.18-6.38-4.04-9.99-5.57-3.6-1.53-7.61-2.73-12.03-3.6-4.42-.87-9.31-1.31-14.65-1.31-8.84,0-16.92,1.55-24.23,4.67-7.31,3.11-13.59,7.37-18.83,12.77-5.24,5.4-9.33,11.68-12.28,18.83-2.95,7.15-4.42,14.82-4.42,23v.33c0,8.19,1.47,15.88,4.42,23.08,2.95,7.2,7.04,13.45,12.28,18.75,5.24,5.29,11.46,9.47,18.66,12.52,7.2,3.05,15,4.58,23.41,4.58,5.57,0,10.59-.46,15.06-1.39,4.47-.93,8.59-2.29,12.36-4.09,3.77-1.8,7.23-3.96,10.4-6.47,1.27-1.01,2.2-1.91,3.04-3.02.05-.06.1-.12.15-.18,15.77-16.94,26.28-39.05,33.1-56.41.95-2.4,4.35-2.38,5.27.03,8.45,22.26,17.94,41.39,25.56,58.52l5.43,10.71c.48.95,1.45,1.55,2.52,1.55h69.79c1.56,0,2.82-1.26,2.82-2.82v-17.42c0-1.56-1.26-2.82-2.82-2.82h-52.53Z"/>
  <text class="cls-1" transform="translate(47 260.49)"><tspan x="0" y="0">C</tspan><tspan class="cls-4" x="16.44" y="0">A</tspan><tspan class="cls-6" x="31.73" y="0">THERINE LEG</tspan><tspan class="cls-3" x="183.67" y="0">A</tspan><tspan x="200.84" y="0">U</tspan><tspan class="cls-5" x="218.71" y="0">L</tspan><tspan x="229.57" y="0">T</tspan></text>
</svg>