<svg xmlns="http://www.w3.org/2000/svg" width="11in" height="8.5in" viewBox="0 0 792 612"><title>logo</title><g id="Layer_1" data-name="Layer 1"><path d="M140,171.8a3.8,3.8,0,0,0-3.7,3.8v46.6A3.8,3.8,0,0,0,140,226h58.2v7.9H140a11.6,11.6,0,0,1-11.6-11.7V175.6A11.6,11.6,0,0,1,140,163.9h58.2v7.9Z"/><path d="M265.3,189.3v44.6H219.6a11.7,11.7,0,0,1-11.7-11.8V201.7h49.3V189.3a3.7,3.7,0,0,0-3.7-3.8H207.9v-8h45.6A11.8,11.8,0,0,1,265.3,189.3Zm-8.1,20.4H215.8v12.4a3.9,3.9,0,0,0,3.8,3.8h37.6Z"/><path d="M283.4,185.5v36.6a3.8,3.8,0,0,0,3.8,3.8h20.6v8H287.2a11.8,11.8,0,0,1-11.8-11.8V159h8v18.5h24.4v8Z"/><path d="M373.3,189.3v44.6h-8V189.3a3.8,3.8,0,0,0-3.8-3.8H327.7a3.9,3.9,0,0,0-3.9,3.8v44.6h-8V159h8v18.5h37.7A11.9,11.9,0,0,1,373.3,189.3Z"/><path d="M437.9,189.3v20.4H388.4v12.4a3.9,3.9,0,0,0,3.8,3.8h45.7v8H392.2a11.7,11.7,0,0,1-11.7-11.8V189.3a11.7,11.7,0,0,1,11.7-11.8H426A11.8,11.8,0,0,1,437.9,189.3Zm-8.1,12.4V189.3a3.7,3.7,0,0,0-3.8-3.8H392.2a3.9,3.9,0,0,0-3.8,3.8v12.4Z"/><path d="M490.8,177.5v8H459.1a3.9,3.9,0,0,0-3.8,3.8v44.6h-8V189.3a11.8,11.8,0,0,1,11.8-11.8Z"/><path d="M581.2,189.3v44.6h-8V189.3a3.9,3.9,0,0,0-3.8-3.8H535.6a3.8,3.8,0,0,0-3.9,3.8v44.6h-8V177.5h45.7A11.8,11.8,0,0,1,581.2,189.3Z"/><path d="M648.5,189.3v20.4H599v12.4a3.9,3.9,0,0,0,3.8,3.8h45.7v8H602.8a11.7,11.7,0,0,1-11.7-11.8V189.3a11.7,11.7,0,0,1,11.7-11.8h33.8A11.8,11.8,0,0,1,648.5,189.3Zm-8.1,12.4V189.3a3.7,3.7,0,0,0-3.8-3.8H602.8a3.9,3.9,0,0,0-3.8,3.8v12.4Z"/><path d="M128.2,242.6h10.1v80h79.8v10.1H128.2Z"/><path d="M298.6,275.4v26.2H235v16a4.9,4.9,0,0,0,4.9,4.8h58.7v10.3H239.9a15.1,15.1,0,0,1-15.1-15.1V275.4a15.1,15.1,0,0,1,15.1-15.2h43.4A15.2,15.2,0,0,1,298.6,275.4Zm-10.4,15.9V275.4a4.8,4.8,0,0,0-4.9-4.9H239.9a4.9,4.9,0,0,0-4.9,4.9v15.9Z"/><path d="M368.5,361.3H323.3V350.9h45.2a5,5,0,0,0,4.9-4.9V332.7H325a15.2,15.2,0,0,1-15.1-15.1V275.4A15.2,15.2,0,0,1,325,260.2h43.5a15,15,0,0,1,15.1,15.2V346A15.1,15.1,0,0,1,368.5,361.3Zm0-38.9a5,5,0,0,0,4.9-4.8V275.4a5,5,0,0,0-4.9-4.9H325a4.9,4.9,0,0,0-4.8,4.9v42.2a4.9,4.9,0,0,0,4.8,4.8Z"/><path d="M468.5,275.4v57.3H409.8a15.2,15.2,0,0,1-15.1-15.1V291.3h63.5V275.4a4.8,4.8,0,0,0-4.9-4.9H394.7V260.2h58.6A15.1,15.1,0,0,1,468.5,275.4Zm-10.3,26.2H405v16a4.9,4.9,0,0,0,4.8,4.8h48.4Z"/><path d="M555.3,260.2v57.4a15.1,15.1,0,0,1-15.2,15.1H496.6a15.2,15.2,0,0,1-15.1-15.1V260.2h10.3v57.4a4.9,4.9,0,0,0,4.8,4.8h43.5a4.9,4.9,0,0,0,5-4.8V260.2Z"/><path d="M578.4,236.5v81.1a5,5,0,0,0,4.9,4.8h12.3v10.3H583.3a15.2,15.2,0,0,1-15.1-15.1V236.5Z"/><path d="M616.3,270.5v47.1a4.9,4.9,0,0,0,4.9,4.8h26.4v10.3H621.2A15.1,15.1,0,0,1,606,317.6V236.5h10.3v23.7h31.3v10.3Z"/><rect x="499.6" y="176.7" width="6.6" height="57.21"/></g><g id="Layer_2" data-name="Layer 2"><path d="M499.2,161.3v8.4a1.2,1.2,0,0,0,1.8,1l7.5-4a1.3,1.3,0,0,0,0-2.2l-8-4A.9.9,0,0,0,499.2,161.3Z" fill="#df1371"/></g></svg>