<svg xmlns="http://www.w3.org/2000/svg" xmlns:xlink="http://www.w3.org/1999/xlink" id="Layer_1" viewBox="0 0 443.88 213.93" width="443.88" height="213.93"><defs><style>.cls-1{fill:url(#linear-gradient)}.cls-2{fill:url(#linear-gradient-2)}</style><linearGradient id="linear-gradient" x1="428.12" x2="433.35" y1="163.06" y2="137.3" gradientUnits="userSpaceOnUse"><stop offset="0" stop-color="#55278f"/><stop offset="1" stop-color="#9c2790"/></linearGradient><linearGradient id="linear-gradient-2" x1="93.18" x2="532.84" y1="167.02" y2="167.02" xlink:href="#linear-gradient"/></defs><circle cx="430.73" cy="150.18" r="13.14" class="cls-1"/><path d="M433.22 231.12a5.09 5.09 0 0 1-4.43-2.58c-1-1.7-2.35-4.19-4.07-7.33C406.2 185.7 383 135.85 368 84.37c-.31-1.05-.54-1.87-.72-2.43a30.81 30.81 0 0 0-29-21.88A29.86 29.86 0 0 0 311 76.26c-2.68 4.36-4.75 10.37-8.55 21.41-8.62 25.09-25.82 75.09-55.34 111.08-5.35 5.95-12.31 14.53-16.81 16.91q-12.22 6.5-29.91 6.48A56.63 56.63 0 0 1 157.27 213 65.51 65.51 0 0 1 145 192.37a70.69 70.69 0 0 1-4.42-25.05v-.59a69.52 69.52 0 0 1 4.42-24.9 64.68 64.68 0 0 1 12.37-20.47 56.8 56.8 0 0 1 19-13.85 57.47 57.47 0 0 1 24-5 62.61 62.61 0 0 1 28.14 6.19 105.12 105.12 0 0 1 20.86 13.83 5.07 5.07 0 0 0 7.07-.58l22.39-25.81a5.07 5.07 0 0 0-.36-7 123 123 0 0 0-11.8-9.58 93.85 93.85 0 0 0-18-10A110.15 110.15 0 0 0 227.1 63a136.57 136.57 0 0 0-26.37-2.36q-23.86 0-43.61 8.4a102.41 102.41 0 0 0-33.89 23 107.17 107.17 0 0 0-30 75.28v.59a108.59 108.59 0 0 0 8 41.55 101.63 101.63 0 0 0 55.69 56.27A106.71 106.71 0 0 0 199 274a134.08 134.08 0 0 0 27.11-2.5 96.49 96.49 0 0 0 22.24-7.37A97.92 97.92 0 0 0 267 252.48a30 30 0 0 0 5.5-5.48 2.69 2.69 0 0 1 .27-.32c28.38-30.49 47.3-70.28 59.58-101.52a5.08 5.08 0 0 1 9.48.05c15.21 40.07 32.28 74.51 46 105.33l9.78 19.27a5.08 5.08 0 0 0 4.53 2.78h125.62a5.07 5.07 0 0 0 5.08-5.08V236.2a5.07 5.07 0 0 0-5.08-5.08z" class="cls-2" transform="translate(-93.18 -60.06)"/></svg>