<?xml version="1.0" encoding="UTF-8"?>
<svg id="Layer_1" data-name="Layer 1" xmlns="http://www.w3.org/2000/svg" xmlns:xlink="http://www.w3.org/1999/xlink" viewBox="0 0 216 216">
  <defs>
    <style>
      .cls-1 {
        fill: #ffdbbd;
      }

      .cls-2 {
        font-family: Raleway-Bold, Raleway;
        font-size: 19.71px;
        font-weight: 700;
      }

      .cls-3 {
        fill: #151563;
      }

      .cls-4 {
        letter-spacing: -.03em;
      }

      .cls-5 {
        letter-spacing: -.02em;
      }

      .cls-6 {
        fill: #fff;
      }

      .cls-7 {
        letter-spacing: -.03em;
      }

      .cls-8 {
        letter-spacing: 0em;
      }

      .cls-9 {
        fill: #0d0d2d;
      }

      .cls-10 {
        letter-spacing: -.12em;
      }

      .cls-11 {
        clip-path: url(#clippath-1);
      }

      .cls-12 {
        fill: #e2b99a;
      }

      .cls-13 {
        letter-spacing: -.02em;
      }

      .cls-14 {
        letter-spacing: -.04em;
      }

      .cls-15 {
        fill: #ff4242;
      }

      .cls-16 {
        letter-spacing: -.11em;
      }

      .cls-17 {
        clip-path: url(#clippath);
      }
    </style>
    <clipPath id="clippath">
      <polygon class="cls-1" points="85.83 109.89 89.95 126.63 87.83 142.67 103.09 140.7 125.76 104.36 85.83 109.89"/>
    </clipPath>
    <clipPath id="clippath-1">
      <path class="cls-1" d="M116.42,41.66c.89,8.77,10.98,19.1,12.1,29.08.78,6.92-4.31,19.58-9.24,24.55-1.74,1.75-4.2,3-5.97,4.65-1.64,1.53-3.17,4.17-4.93,5.43-1.08.77-2.54,1.1-3.69,1.75-2.02,1.14-3.44,3.09-5.49,3.85-7.39-.14-14.27-.73-21.36-3-3.32-1.06-4.81-1.69-6.52-4.87-4.24-7.9-7.3-17.15-7.48-26.2-.09-4.3,4.34-14.09,6.27-18.37.99-2.19,4.4-9.32,5.79-10.79.69-.73,3.87-2.52,4.87-2.9,1.71-.65,5.28-1.34,7-.73.23.08.21.64.59,1.02,1.23,1.22,3.3,1.5,3.22-.75,9.18,1.16,18.05-1.93,24.87-8.03.12,1.71-.17,3.63,0,5.31ZM90.7,50.15c-1.81-.74-5.09-4.17-6.85-4.43-.87-.13-2.84,2.08-2.93,2.69-.21,1.44,1.13,1.43,2.01,1.87s-.54,1.2-.96,1.75c-2.01,2.61-5.89,9.84-2.84,12.67s7.77-3.66,8.84-6.16c.83-1.94.93-2.9,2.03-4.78.64-1.1,1.52-2.35.7-3.61ZM106.12,49.89c-.2.21-.36.8-.33,1.09,0,.31.19.47.38.67.6.64,5.37,2.38,6.7,3.15s2.81,1.85,3.93,2.81c.69.59,2.03,2.45,2.65,2.55,1.03.16,1.05-1.06.71-1.77-.35-.75-3.25-3.63-4.03-4.26-1.89-1.52-6.57-4.44-8.95-4.53-.33-.01-.83.06-1.07.3ZM112.28,62.52c.28-.32,1.75,1.04,2.08,1.17,1.24.49,2.51-2.55,1.42-3.76-.63-.7-6.69-4.44-7.77-4.92-1.61-.71-2.47-1.36-3.75.14-2.43,2.86.74,2.89,2.51,3.95.88.53-.38.83-.85,1.34-2.61,2.86-5.19,8.13-4.78,12.06.15,1.48,1.05,3.38,2.74,3.49,4.31.26,9.12-9.61,8.4-13.46ZM86.57,68.28c-.47-.36-.98-.22-1.37.19.1,2.77-1.97,5.52-4.35,6.78-2.51,1.33-4.64.59-5.07,4.26-.28,2.43.41,3.07,1.78,4.87l-1.53,1.1.27,1.62c2.07.4,2.25-.88,1.79-2.56l3.88.26c.29,1.45-1.14,1.02-1.06,2.46s1.87.86,2.07.22c.18-.57-.78-1.72-.23-2.68.27-.3,1.61,1.79,3.47.75s.59-4.85-.64-3.23c-.43.57.03,1.98-.62,1.7-.43-.19-.78-1.06-1.62-1.24-1.29-.28-2.8.66-4.41.01s-1.84-3.4-.73-4.48c.65-.63,3.58-1.38,4.89-2.36,2.1-1.59,4.32-4.96,3.48-7.66ZM72.97,88.73c-.42,3.19-1.08,5.81.12,8.95,2.96,7.72,12.46,14.16,18.98,6.13,2.77-3.41,2.11-7.08,2.57-11.15l-.5-.77-4.02.92c-4,.32-8.19-.98-11.92-2.32-1-.36-4.63-2.4-5.24-1.76Z"/>
    </clipPath>
  </defs>
  <g>
    <polygon class="cls-1" points="85.83 109.89 89.95 126.63 87.83 142.67 103.09 140.7 125.76 104.36 85.83 109.89"/>
    <g class="cls-17">
      <path class="cls-12" d="M127.2,107.81s-17.35-1.91-26.11,5.66c-9.89,8.55,0,31.67,0,31.67,0,0,38.9-2.99,26.65-26.08-6.97-13.13-.54-11.25-.54-11.25Z"/>
    </g>
  </g>
  <g>
    <path d="M68.24,142.55l-3.28,7.74c-1.19.24-1.31-.7-1.4-1.64-.74-8.26,2.6-20.16,9.08-25.66,2.47-2.09,5.9-3.38,8.2-5.66.67-.66,4.12-5.27,3.71-5.86-3.78-1.1-9.2-1.58-12.29-4.16s-3.7-7.21-5.71-10.35c-3.31,4.43-8.62,7.29-14.12,7.76.18,1.31-.46,2.31-1.75,1.49-2.21-5.05-4.46-10.13-5.89-15.47-2.52-9.39-2.48-18.22-.53-27.73.83-4.03,2.14-7.37,4.28-10.87-2.12-.02-6.76,1.13-8.53.11-.81-.46-.69-1.23,0-1.79,1.19-.98,4.51-1.76,6.12-2.69,2.12-1.22,5.64-5.39,6.61-7.64,1.25-2.88,1.26-6.13,2.35-9.05,1.98-5.35,6.5-9.5,11.85-11.33-1.96-1.39-4.12-2.43-5.96-4.01-.38-.33-2.63-2.51-2.73-2.73-.2-.46,0-.84.18-1.25.52-.33,4.7.91,5.79.99,5.87.43,12.26-1.64,17.95-2.76,14.23-2.81,25.01-4.34,38.74,1.77.9.4,3.71,2.16,4.24,2.26,1.08.19,3.96-.77,5.36-.75,2.66.05,5.73,2.11,7.89,3.53,11.36,7.46,17.19,16.54,23.05,28.5,2.98,6.08,6.01,12.11,9.02,18.18.46.92,2.43,4.69,2.43,5.36,0,1.04-.94,1.44-1.83,1.03-.5-.23-.81-1.24-1.56-1.16-.3,3.09.61,6.13.79,9.18.41,7.34-1.16,19.31-2.67,26.62-2.35,11.33-11.1,16.14-17.54,24.17-3.53,4.4-4.6,13.16-4.16,18.65.09,1.13,1.87,5.69-.58,5-1.05-.29-3.4-4.23-4.02-5.32-.17-.3-.58-2.12-1.08-1.64-1.66,6-6.64,12.41-12.94,13.87-3.02.7-5.53.38-8.53,1.83-1.56.76-6.38,5.25-6.27,1.26,0-.33.62-1.96-.1-1.68-2.81,2.34-7.11,3.86-9.72,6.34-1.62,1.54-3.7,7.1-6.21,4.15-1.8-2.11-1.1-4.56-1.29-6.99-.37-4.73-1.03-8.26.19-13.02,2.77-10.77,8.4-24.4,14.46-33.72,1.32-2.02,2.84-3.74,4.51-5.46-5.13,1.88-10.79,5.18-15.03,8.67-1.31,1.08-4.31,5.05-3.81.33.33-3.08,1.87-5.71,3.03-8.49-3.91.08-7.79.02-11.65-.52.35,1,1.01,1.86,1.42,2.85,2.55,6.17,3.17,15.53,1.83,22.02-.31,1.53-.7,4.92-2.73,4.4.07-2.1.93-3.87,1.1-6.02.02-.31.51-.51-.19-.45-3.03,3.48-7.91,2.77-11.41,5.69-1.39,1.16-3.5,3.91-4.32,5.53-.57,1.13-1.54,5.5-2.02,5.75s-1.04.2-1.45-.11c-.27-.21-.88-2.19-.88-2.48v-6.61ZM169.52,66.14c-1.28-3.57-3.35-6.75-5.06-10.1-7.31-14.38-10.93-26.48-24.91-36.22-2.56-1.78-6.42-4.59-9.54-4.66-1.22-.03-4.14.8-4.86.68-1.2-.2-5.34-2.68-7.05-3.33-17.42-6.63-27.62-1.33-44.34,1.27-3.72.58-7.77.9-11.49.56.87,1.9,7.02,3.76,7.41,5.17s-2.54,1.9-3.58,2.41c-4.32,2.13-7.79,5.33-9.47,9.96-.76,2.11-.89,4.39-1.48,6.55-1.37,4.91-6.21,10.82-11.26,12.18-.05.44.9.28,1.17.27,1.31-.09,5.33-1.35,5.57.39.14,1.02-2.67,5.41-3.24,6.85-3.24,8.18-3.55,21.56-1.56,30.05,1.01,4.33,2.49,8.69,4.41,12.69.18-1.46.23-2.96.5-4.42.3-1.59,2.64-9.27,3.77-9.96,1.06-.66,1.56.56,1.54,1.51-.11,4.2-2.24,9.49-2.57,13.78-.02.3-.02.6,0,.9,5.06-.43,9.23-3.72,12.14-7.7-1.79-4.52-2.84-9.35-3.33-14.19-.81-8.1,2.44-14.54,5.65-21.8,1.36-3.07,5.35-11.62,7.83-13.41,7.46-5.37,12.04-2.57,20.06-2.74,6.89-.14,13.53-2.67,18.66-7.24.78-.7,3.34-3.84,3.89-3.9,1.86-.2.4,1.83.25,2.34-3.65,12.49,11.21,25.01,11.8,37.67.31,6.65-4.25,18.23-8.57,23.32-2.17,2.56-4.74,3.96-7.12,6.09-1.72,1.54-3.05,3.79-4.66,5.18-1.36,1.17-3.13,1.54-4.61,2.39-4.19,2.4-6.99,6.63-7.95,11.35,3.08-2.51,6.44-4.84,9.93-6.78,6.26-3.48,10.86-4.63,16.5-9.67,8.85-7.91,13.48-16.88,14.76-28.76.09-.81-.31-3.48.68-3.72,1.81-.45.96,4.75.84,5.76-.26,2.24-.81,4.44-1.26,6.63,5.45,1.51,7.06,10.13,5.68,14.88-1.12,3.87-7.49,10.89-11.73,10.92-1.51.01-4.34-.8-5.71-1.49-.66-.33-2.1-1.62-2.57-1.49-1.57,1.21-3.17,2.45-4.93,3.38-.7.37-3.17,1.12-3.28,1.25-.08.09.23.6.19.87-.11.82-2.14,2.37-2.77,3.15-7.03,8.56-14.06,26.07-16.77,36.85-1.12,4.47-.45,8.16-.08,12.62.17,1.99-.55,4.32,1.17,5.82,1.19-1.87,2.43-3.74,4.15-5.17,1.55-1.29,9.16-6.14,10.86-6.75.41-.15.81-.33,1.26-.22,1.28.41-.19,2.72.3,3.6,4.42-4.57,11.12-2.66,16.01-5.74,2.51-1.59,5.3-4.96,6.62-7.63.6-1.21,1.87-5.81,2.62-6.2.44-.21,1.01-.05,1.31.33.97,1.22,1.34,4.91,3.09,6.03,0-7.45-.26-15.24,4.79-21.24,5.38-6.39,13.07-11.49,15.74-20,2.08-6.62,3.83-21.11,3.57-28.05-.16-4.32-1.85-8.73-.55-12.96l1.57-.11ZM116.42,41.66c-.17-1.68.12-3.6,0-5.31-6.82,6.09-15.68,9.19-24.87,8.03.08,2.25-1.98,1.97-3.22.75-.38-.38-.36-.94-.59-1.02-1.71-.6-5.28.09-7,.73-1,.38-4.19,2.17-4.87,2.9-1.39,1.47-4.81,8.6-5.79,10.79-1.93,4.28-6.35,14.07-6.27,18.37.18,9.05,3.23,18.29,7.48,26.2,1.71,3.19,3.2,3.81,6.52,4.87,7.1,2.27,13.97,2.85,21.36,3,2.06-.77,3.47-2.71,5.49-3.85,1.15-.65,2.61-.98,3.69-1.75,1.77-1.25,3.29-3.9,4.93-5.43,1.77-1.65,4.23-2.89,5.97-4.65,4.93-4.97,10.02-17.63,9.24-24.55-1.12-9.98-11.21-20.31-12.1-29.08ZM138.59,85.06c-.93,1.76-1.4,3.72-2.26,5.52-2.47,5.22-6.45,9.82-10.57,13.78,1.24,1.86,4.78,3.08,6.89,3.21,3.3.19,9.55-6.77,10.34-9.81.98-3.75-.21-11.23-4.4-12.7ZM69.8,143.2c-.11,1.29.08,2.71,0,4.01.78.08.86-1.32,1.25-1.99,1.89-3.24,4.23-6.51,7.82-7.98,2-.82,4.49-1.11,6.39-2.15,1.39-.76,2.29-2.17,3.65-2.96l.08-.33c-.02-5.41-.28-11.69-2.48-16.71-.09-.2-.73-2.01-1.16-1.56-2.08,6.81-9.9,8.18-13.84,13.23-3.43,4.4-5.82,10.98-5.85,16.55l3.66-6.3c.34-.7,1.42-1.23,1.91-.43.43.7-.45,1.96-.64,2.74-.29,1.16-.69,2.71-.79,3.87Z"/>
    <path class="cls-9" d="M169.52,66.14l-1.57.11c-1.31,4.23.38,8.64.55,12.96.26,6.94-1.49,21.43-3.57,28.05-2.68,8.52-10.36,13.61-15.74,20-5.05,6-4.78,13.79-4.79,21.24-1.75-1.12-2.12-4.81-3.09-6.03-.3-.38-.87-.54-1.31-.33-.76.39-2.03,4.99-2.62,6.2-1.32,2.66-4.11,6.04-6.62,7.63-4.89,3.09-11.6,1.17-16.01,5.74-.5-.88.98-3.19-.3-3.6-.45-.11-.85.07-1.26.22-1.7.61-9.31,5.47-10.86,6.75-1.72,1.43-2.96,3.3-4.15,5.17-1.72-1.5-1-3.83-1.17-5.82-.38-4.46-1.05-8.15.08-12.62,2.71-10.78,9.74-28.28,16.77-36.85.64-.78,2.66-2.33,2.77-3.15.04-.27-.27-.78-.19-.87.12-.13,2.58-.88,3.28-1.25,1.76-.93,3.36-2.17,4.93-3.38.47-.12,1.9,1.16,2.57,1.49,1.37.69,4.2,1.5,5.71,1.49,4.24-.04,10.61-7.05,11.73-10.92,1.37-4.75-.23-13.37-5.68-14.88.45-2.2,1-4.39,1.26-6.63.12-1.01.97-6.21-.84-5.76-.99.25-.6,2.92-.68,3.72-1.28,11.88-5.9,20.85-14.76,28.76-5.63,5.03-10.24,6.18-16.5,9.67-3.48,1.94-6.84,4.27-9.93,6.78.96-4.72,3.76-8.94,7.95-11.35,1.48-.85,3.24-1.21,4.61-2.39,1.61-1.39,2.94-3.64,4.66-5.18,2.38-2.13,4.95-3.53,7.12-6.09,4.32-5.09,8.87-16.67,8.57-23.32-.59-12.66-15.45-25.19-11.8-37.67.15-.51,1.61-2.54-.25-2.34-.55.06-3.11,3.21-3.89,3.9-5.12,4.57-11.77,7.1-18.66,7.24-8.02.17-12.6-2.63-20.06,2.74-2.48,1.78-6.47,10.34-7.83,13.41-3.21,7.26-6.46,13.7-5.65,21.8.49,4.85,1.53,9.68,3.33,14.19-2.91,3.97-7.08,7.27-12.14,7.7-.01-.3-.02-.6,0-.9.33-4.29,2.46-9.59,2.57-13.78.02-.95-.47-2.17-1.54-1.51-1.12.69-3.47,8.37-3.77,9.96-.28,1.46-.32,2.95-.5,4.42-1.92-4-3.39-8.36-4.41-12.69-1.99-8.49-1.68-21.87,1.56-30.05.57-1.44,3.38-5.83,3.24-6.85-.23-1.74-4.26-.48-5.57-.39-.28.02-1.22.18-1.17-.27,5.05-1.36,9.9-7.27,11.26-12.18.6-2.15.72-4.44,1.48-6.55,1.68-4.62,5.15-7.82,9.47-9.96,1.04-.51,3.98-.95,3.58-2.41s-6.54-3.27-7.41-5.17c3.73.34,7.78.02,11.49-.56,16.72-2.59,26.91-7.9,44.34-1.27,1.71.65,5.85,3.13,7.05,3.33.72.12,3.64-.71,4.86-.68,3.12.07,6.98,2.88,9.54,4.66,13.98,9.74,17.6,21.84,24.91,36.22,1.7,3.35,3.78,6.53,5.06,10.1Z"/>
    <g>
      <path class="cls-1" d="M116.42,41.66c.89,8.77,10.98,19.1,12.1,29.08.78,6.92-4.31,19.58-9.24,24.55-1.74,1.75-4.2,3-5.97,4.65-1.64,1.53-3.17,4.17-4.93,5.43-1.08.77-2.54,1.1-3.69,1.75-2.02,1.14-3.44,3.09-5.49,3.85-7.39-.14-14.27-.73-21.36-3-3.32-1.06-4.81-1.69-6.52-4.87-4.24-7.9-7.3-17.15-7.48-26.2-.09-4.3,4.34-14.09,6.27-18.37.99-2.19,4.4-9.32,5.79-10.79.69-.73,3.87-2.52,4.87-2.9,1.71-.65,5.28-1.34,7-.73.23.08.21.64.59,1.02,1.23,1.22,3.3,1.5,3.22-.75,9.18,1.16,18.05-1.93,24.87-8.03.12,1.71-.17,3.63,0,5.31ZM90.7,50.15c-1.81-.74-5.09-4.17-6.85-4.43-.87-.13-2.84,2.08-2.93,2.69-.21,1.44,1.13,1.43,2.01,1.87s-.54,1.2-.96,1.75c-2.01,2.61-5.89,9.84-2.84,12.67s7.77-3.66,8.84-6.16c.83-1.94.93-2.9,2.03-4.78.64-1.1,1.52-2.35.7-3.61ZM106.12,49.89c-.2.21-.36.8-.33,1.09,0,.31.19.47.38.67.6.64,5.37,2.38,6.7,3.15s2.81,1.85,3.93,2.81c.69.59,2.03,2.45,2.65,2.55,1.03.16,1.05-1.06.71-1.77-.35-.75-3.25-3.63-4.03-4.26-1.89-1.52-6.57-4.44-8.95-4.53-.33-.01-.83.06-1.07.3ZM112.28,62.52c.28-.32,1.75,1.04,2.08,1.17,1.24.49,2.51-2.55,1.42-3.76-.63-.7-6.69-4.44-7.77-4.92-1.61-.71-2.47-1.36-3.75.14-2.43,2.86.74,2.89,2.51,3.95.88.53-.38.83-.85,1.34-2.61,2.86-5.19,8.13-4.78,12.06.15,1.48,1.05,3.38,2.74,3.49,4.31.26,9.12-9.61,8.4-13.46ZM86.57,68.28c-.47-.36-.98-.22-1.37.19.1,2.77-1.97,5.52-4.35,6.78-2.51,1.33-4.64.59-5.07,4.26-.28,2.43.41,3.07,1.78,4.87l-1.53,1.1.27,1.62c2.07.4,2.25-.88,1.79-2.56l3.88.26c.29,1.45-1.14,1.02-1.06,2.46s1.87.86,2.07.22c.18-.57-.78-1.72-.23-2.68.27-.3,1.61,1.79,3.47.75s.59-4.85-.64-3.23c-.43.57.03,1.98-.62,1.7-.43-.19-.78-1.06-1.62-1.24-1.29-.28-2.8.66-4.41.01s-1.84-3.4-.73-4.48c.65-.63,3.58-1.38,4.89-2.36,2.1-1.59,4.32-4.96,3.48-7.66ZM72.97,88.73c-.42,3.19-1.08,5.81.12,8.95,2.96,7.72,12.46,14.16,18.98,6.13,2.77-3.41,2.11-7.08,2.57-11.15l-.5-.77-4.02.92c-4,.32-8.19-.98-11.92-2.32-1-.36-4.63-2.4-5.24-1.76Z"/>
      <g class="cls-11">
        <path class="cls-12" d="M120.36,36.35h-13.65s16.5,14.36,14.99,31.71-12.64,32.48-21.64,37.48l-9,5.01s8.08,5.96,34.7.41c26.62-5.55,14.84-48.84,6.63-60.89-8.22-12.05-12.02-13.73-12.02-13.73Z"/>
      </g>
    </g>
    <path class="cls-9" d="M69.8,143.2c.1-1.16.5-2.71.79-3.87.19-.77,1.08-2.04.64-2.74-.49-.8-1.57-.27-1.91.43l-3.66,6.3c.03-5.58,2.42-12.16,5.85-16.55,3.94-5.05,11.76-6.42,13.84-13.23.43-.45,1.07,1.36,1.16,1.56,2.2,5.02,2.46,11.3,2.48,16.71l-.08.33c-1.36.79-2.26,2.2-3.65,2.96-1.9,1.04-4.39,1.33-6.39,2.15-3.59,1.47-5.93,4.74-7.82,7.98-.39.67-.47,2.07-1.25,1.99.08-1.31-.11-2.72,0-4.01Z"/>
    <path class="cls-1" d="M138.59,85.06c4.19,1.47,5.38,8.94,4.4,12.7-.79,3.05-7.04,10.01-10.34,9.81-2.12-.12-5.65-1.34-6.89-3.21,4.13-3.96,8.11-8.57,10.57-13.78.85-1.8,1.32-3.76,2.26-5.52ZM139.41,98.05c-2.35.19-1.37,3.83.94,2.51,1.36-.78.47-2.62-.94-2.51ZM136.3,101.15c-1.72.33-1.41,2.63.17,2.55,1.8-.09,1.58-2.89-.17-2.55ZM132,102.7c-.9.57.05,3.35,1.67,2.06,1.27-1.01-.48-2.81-1.67-2.06ZM129.83,103.25c-1.2-1.2-2.89.78-1.64,1.77s2.68-.73,1.64-1.77Z"/>
    <path d="M112.28,62.52c.72,3.85-4.09,13.72-8.4,13.46-1.69-.1-2.59-2.01-2.74-3.49-.41-3.93,2.17-9.2,4.78-12.06.46-.51,1.73-.81.85-1.34-1.77-1.06-4.94-1.09-2.51-3.95,1.28-1.51,2.14-.85,3.75-.14,1.08.48,7.14,4.21,7.77,4.92,1.09,1.22-.18,4.25-1.42,3.76-.33-.13-1.8-1.48-2.08-1.17Z"/>
    <path d="M90.7,50.15c.82,1.27-.06,2.51-.7,3.61-1.09,1.88-1.19,2.83-2.03,4.78-1.07,2.49-5.68,9.08-8.84,6.16s.84-10.06,2.84-12.67c.42-.54,1.81-1.32.96-1.75s-2.23-.43-2.01-1.87c.09-.61,2.05-2.82,2.93-2.69,1.76.26,5.04,3.69,6.85,4.43Z"/>
    <path d="M72.97,88.73c.62-.64,4.25,1.4,5.24,1.76,3.73,1.34,7.92,2.65,11.92,2.32l4.02-.92.5.77c-.46,4.07.2,7.74-2.57,11.15-6.52,8.03-16.02,1.58-18.98-6.13-1.2-3.15-.54-5.77-.12-8.95ZM92.59,94.12c-1.75.28-3.54.6-5.32.53-1.19-.05-4.56-1.05-5.22-.85-1.16.34-4.05,3.17-4.41,4.41-.57,1.95-.53,2.81.72,4.33,3.22,3.91,9.07,4.1,12.3.14.76-.94,1.94-3.38,1.94-4.54v-4.01Z"/>
    <path d="M86.57,68.28c.84,2.71-1.37,6.08-3.48,7.66-1.31.99-4.24,1.73-4.89,2.36-1.12,1.08-.84,3.85.73,4.48s3.12-.29,4.41-.01c.84.18,1.18,1.06,1.62,1.24.65.28.19-1.14.62-1.7,1.23-1.62,2.57,2.14.64,3.23s-3.19-1.05-3.47-.75c-.55.95.41,2.11.23,2.68-.2.64-1.99,1.29-2.07-.22s1.35-1.01,1.06-2.46l-3.88-.26c.46,1.67.29,2.96-1.79,2.56l-.09-.54c-.11-.66.16-1.32.71-1.71l.64-.46c-1.37-1.8-2.06-2.44-1.78-4.87.43-3.67,2.55-2.93,5.07-4.26s4.45-4.01,4.35-6.78c.39-.42.89-.55,1.37-.19Z"/>
    <path d="M106.12,49.89c.24-.24.73-.31,1.07-.3,2.38.09,7.06,3.01,8.95,4.53.78.63,3.68,3.5,4.03,4.26.33.71.31,1.93-.71,1.77-.62-.1-1.96-1.95-2.65-2.55-1.12-.96-2.65-2.07-3.93-2.81s-6.1-2.51-6.7-3.15c-.19-.2-.39-.36-.38-.67-.03-.29.12-.89.33-1.09Z"/>
    <path d="M139.41,98.05c1.41-.11,2.3,1.72.94,2.51-2.31,1.32-3.29-2.31-.94-2.51Z"/>
    <path d="M136.3,101.15c1.75-.34,1.97,2.46.17,2.55-1.58.08-1.89-2.22-.17-2.55Z"/>
    <path d="M132,102.7c1.19-.75,2.94,1.05,1.67,2.06-1.62,1.29-2.57-1.49-1.67-2.06Z"/>
    <path d="M129.83,103.25c1.04,1.04-.39,2.77-1.64,1.77s.45-2.97,1.64-1.77Z"/>
    <path class="cls-15" d="M92.59,94.12v4.01c0,1.15-1.18,3.6-1.94,4.54-3.23,3.96-9.08,3.77-12.3-.14-1.25-1.52-1.29-2.37-.72-4.33.36-1.24,3.25-4.07,4.41-4.41.66-.2,4.03.8,5.22.85,1.78.07,3.58-.25,5.32-.53Z"/>
  </g>
  <circle class="cls-6" cx="105.79" cy="64.38" r="1.58"/>
  <circle class="cls-6" cx="83.41" cy="54.78" r="1.58"/>
  <path d="M86.62,140.31c-.42,1.17-1.2,2.93-.14,3.95.49.47,1.33.61,1.99.71.76.12,1.48.09,2.24,0,2.55-.34,5.09-.63,7.66-.73.81-.03,1.5-.67,1.5-1.5,0-.79-.69-1.53-1.5-1.5-1.82.07-3.63.22-5.44.43-1.63.2-3.39.72-4.99.09l.66.39-.1-.1.39.66-.02-.11v.8c.12-.77.38-1.54.65-2.28s-.31-1.64-1.05-1.85c-.83-.23-1.57.28-1.85,1.05h0Z"/>
  <path d="M87.72,139.59c-.09,1.06-.55,2.02-.63,3.08-.02.29.25.68.55.72,3.58.49,7.17.41,10.73-.25.64-.12.72-1.07.18-1.37-.93-.52-1.94-.41-2.93-.17-1.08.26-2.11.46-3.23.45-.55,0-1.1-.04-1.64-.12s-1.08-.27-1.62-.31l-.19-.05c.17.4.26.48.29.25.06-.09.06-.27.07-.37.04-.27.07-.54.09-.81.03-.52.05-1.03.17-1.55.2-.87-.88-1.25-1.37-.58-.26.35-.4.72-.49,1.14-.05.25-.1.5-.2.73s-.25.44-.3.69c-.27,1.38,1.67,1.71,2.62,1.84,2.77.38,5.7.19,8.47-.13.41-.05.75-.31.75-.75,0-.37-.35-.8-.75-.75-2.35.27-4.72.37-7.09.25-.51-.02-1.02-.06-1.52-.15-.24-.05-.47-.1-.7-.18-.09-.03-.19-.09-.29-.1-.14-.11-.17-.08-.07.09.01.16.03.2.07.11.11-.05.23-.45.27-.55.08-.21.12-.43.17-.65.07-.33.15-.56.35-.84l-1.37-.58c-.14.59-.18,1.18-.21,1.78-.03.55-.28,1.17-.18,1.71.11.58.58.78,1.1.9.63.15,1.27.26,1.92.34,1.25.16,2.51.15,3.76-.05.99-.16,2.33-.85,3.29-.32l.18-1.37c-3.27.61-6.64.7-9.93.25l.55.72c.04-.44.18-.86.31-1.29.17-.59.27-1.18.32-1.79.08-.96-1.42-.96-1.5,0h0Z"/>
  <text class="cls-2" transform="translate(8.49 188.93)"><tspan class="cls-8" x="0" y="0">C</tspan><tspan class="cls-16" x="13.32" y="0">A</tspan><tspan x="24.36" y="0">T</tspan><tspan class="cls-14" x="36.56" y="0">H</tspan><tspan class="cls-13" x="50.46" y="0">ERI</tspan><tspan x="79.86" y="0">NE L</tspan><tspan class="cls-5" x="122.99" y="0">E</tspan><tspan x="134.54" y="0">G</tspan><tspan class="cls-4" x="148.83" y="0">A</tspan><tspan x="161.46" y="0">U</tspan><tspan class="cls-10" x="176.24" y="0">L</tspan><tspan class="cls-7" x="185.43" y="0">T</tspan></text>
  <path class="cls-3" d="M125.76,34.88c-.15.34-3.78,4.86-.7,11.64s7.19,11.44,8.22,21.37c1.03,9.93-2.19,14.52-2.19,14.52,0,0,6.3-4.93,4.66-14.93-1.64-10-8.56-18.29-9.04-24.38-.48-6.1-.94-8.22-.94-8.22Z"/>
  <path class="cls-3" d="M114.85,26.66s-12.54,9.67-21.95,9.7c-9.41.03-14.72.3-20.49,4.28l-5.77,3.97s10.18-10.96,19.2-11.37,29.02-6.58,29.02-6.58Z"/>
  <path class="cls-3" d="M142.22,34.88s-.39,10.12,8.24,31.09,8.77,40.28-5.48,51.65l-14.25,11.37s17.75-11.88,21.31-27.86.33-14.67-5.42-36.02c-5.75-21.35-4.4-30.23-4.4-30.23Z"/>
</svg>