<svg xmlns="http://www.w3.org/2000/svg" width="11in" height="816" viewBox="0 0 792 612"><path fill="#ab0a3d" d="M694.6 327.2h-26.2c-7.1 0-11.6-4.4-11.6-9.7s4.5-9.7 11.6-9.7H744c7.2 0 11.7 4.4 11.7 9.7s-4.5 9.7-11.7 9.7h-26v73.4c0 6.4-5.4 9.6-11.9 9.6s-11.5-3.2-11.5-9.6zM591.2 313c0-5.9 3.6-10.3 10.1-10.3a10 10 0 0 1 10.3 10.3v59.9c0 13.3 5.9 23 20.4 23s14.8-9.7 22.5-9.7c5.3 0 8.4 4 8.4 9 0 15.1-20.7 20.5-33.1 20.5-26.1 0-38.6-18.6-38.6-42.8zm-45.8 4.4c0-5.9 5.4-9.4 11.5-9.4s11.7 3.5 11.7 9.4v54.3c0 26.4-16 41.2-48.1 41.2s-49-14.8-49-41.2v-54.3c0-5.9 5.4-9.4 11.7-9.4s11.6 3.5 11.6 9.4v54.9c0 14.6 8.8 21.2 25.5 21.2s25.1-6.6 25.1-21.2zm-135.1 94.1c-8.3 0-13.5-3.6-13.5-9.6s5.4-9.6 13.5-9.6h27.2c-3.4-15.1-20.3-51.9-30.1-58.5-11.1 8.9-28.2 46.8-33 66.2-2.2 8.2-5.2 12.5-13.1 12.5s-11.9-4.4-11.9-9.6c0-8.2 6.1-24.6 14.4-41.5 10.2-21.2 26.3-51.9 43.4-51.9s33.4 30.7 43.4 51.9c7.9 16.9 14 32.8 14 41.2 0 5.3-2.8 8.9-11.6 8.9zm-67.8-29.9c0 20.9-14.5 32.7-49 32.7-38.2 0-61-23.4-61-53.8 0-28.7 22.8-52.8 61-52.8 24.1 0 47.1 8.4 47.1 21.1 0 5.5-4.3 8.8-10.4 8.8a15 15 0 0 1-4.7-.8c-9.3-3-14.2-9.2-31.2-9.2-23 0-37.7 15.1-37.7 32.9 0 19.6 15.4 34.2 37.8 34.2 19.4 0 25.2-2.5 25.2-14.6v-11.2c0-5.9 5.2-9.2 11.3-9.2s11.6 3.3 11.6 9.2zm-160-15.1c-10.4 0-21.8 1.9-21.8 13s13.4 15.1 25.3 15.1c20.4 0 26.5-10.7 35.5-10.7 6.6 0 10 3.8 10 8.9 0 15.2-28.9 20.5-44.3 20.5-22.8 0-49.9-6-49.9-29.6 0-12 8.8-22.8 23.9-25.3-14.4-2.5-21.7-12.1-21.7-23.5 0-22.3 25.3-28.1 47-28.1 14.9 0 44.7 4.7 44.7 19.8 0 4.6-4.7 7.7-9.9 7.7-7.3 0-12.2-4.4-18.5-6.6a50.3 50.3 0 0 0-17.4-2.7c-10.9 0-24 2.9-24 14.1s10 12.8 20.4 12.8h4.9c6.1 0 12.5.6 12.5 7.2 0 5-3.6 7.4-9.5 7.4zM51.2 313.1c0-5.5 4.1-9.6 11.5-9.6s11.6 4.1 11.6 9.6v55.6c0 12.4 6.7 21.4 23.2 21.4s16.7-9 25.5-9c5.9 0 9.5 3.7 9.5 8.4 0 13.9-23.5 18.9-37.5 18.9-29.7 0-43.8-17.2-43.8-39.7z"/><path fill="#e7004c" d="M714.8 241c-8.1 0-17.1 1.5-17.1 10.2s10.5 11.8 19.8 11.8c16 0 20.7-8.4 27.8-8.4 5.1 0 7.8 3 7.8 7 0 11.9-22.6 16-34.6 16-17.9 0-39.1-4.7-39.1-23.1 0-9.4 6.9-17.8 18.7-19.8-11.2-1.9-17-9.4-17-18.4 0-17.4 19.8-22 36.8-22 11.6 0 34.9 3.7 34.9 15.6 0 3.5-3.6 6-7.7 6-5.7 0-9.5-3.5-14.4-5.2a41.4 41.4 0 0 0-13.7-2.1c-8.5 0-18.8 2.3-18.8 11s7.9 10.1 16 10.1h3.8c4.8 0 9.9.4 9.9 5.6s-2.9 5.7-7.5 5.7zm-69.5-14.2c0-10.1-6-17-18.2-17s-20.8 5.9-20.8 16.5v43.3c0 5-4.2 7.3-9.1 7.3s-9.1-2.3-9.1-7.3v-66.5c0-4.3 3.6-6.8 8.7-6.8s7.7 2.9 8 9.8c4.3-6.3 12.9-11 24.3-11 22.7 0 34.6 11.7 34.6 32.2v42.3c0 4.9-4.3 7.3-9.2 7.3s-9.2-2.4-9.2-7.3zm-91-23.8c0-4.6 4-7.3 9.1-7.3s9 2.7 9 7.3v65.8c0 5-4.3 7.5-9 7.5s-9.1-2.5-9.1-7.5zm-31 50.2c0-10-7.7-11.3-15.8-11.3h-8.6c-4.1 0-6.7-1.9-6.7-6.1s2.9-5.6 6.7-5.6h9c8.3 0 15.1-1.6 15.1-9.9s-9-11.2-19.8-11.2c-14.3 0-19 2.5-19 9.5v51c0 4.7-3.7 7.3-9.2 7.3s-9.1-2.6-9.1-7.3v-55.9c0-14.2 11.8-18.7 36.8-18.7 18.8 0 37.3 4.7 37.3 22.3 0 9-5.3 15.9-17 18.1 11.3 1.8 18.5 8.6 18.5 17.8v16.5c0 4.8-3.7 7.2-9.1 7.2s-9.1-2.4-9.1-7.3zM416.2 245c-8.1 0-17.1 1.5-17.1 10.1s10.5 11.9 19.8 11.9c16 0 20.8-8.4 27.8-8.4 5.2 0 7.8 3 7.8 7 0 11.8-22.6 16-34.6 16-17.8 0-39-4.7-39-23.1 0-9.5 6.8-17.9 18.6-19.8-11.2-2-17-9.5-17-18.4 0-17.4 19.8-22 36.8-22 11.7 0 35 3.7 35 15.5 0 3.6-3.7 6-7.8 6-5.7 0-9.5-3.4-14.4-5.2a41.1 41.1 0 0 0-13.6-2c-8.6 0-18.8 2.3-18.8 11s7.8 10 16 10h3.8c4.7 0 9.8.5 9.8 5.7s-2.8 5.7-7.5 5.7zm-60.4 3.5h-39v25.9c0 4.9-4.3 7.5-9.5 7.5s-8.9-2.6-8.9-7.5v-65.8c0-4.6 4-7.4 8.9-7.4s9.5 2.8 9.5 7.4v25.8h39v-25.8c0-4.6 4-7.4 8.9-7.4s9.3 2.8 9.3 7.4v65.8c0 4.9-4.2 7.5-9.3 7.5s-8.9-2.6-8.9-7.5zm-111-31.8h-20.5c-5.6 0-9.1-3.5-9.1-7.6s3.5-7.6 9.1-7.6h59.1c5.6 0 9.1 3.5 9.1 7.6s-3.5 7.6-9.1 7.6h-20.3v57.4c0 5-4.2 7.5-9.3 7.5s-9-2.5-9-7.5zm-38.4 25.2c-1.4-2.9-2.9-5.7-4.4-8.6-4.7-9.1-9.6-18.2-16.9-25.5-3-3-6.7-5.7-10.9-6.4-5.9-.9-11.7 2.6-16.2 6.5-7 6.2-12.4 13.9-17.7 21.5l-19.1 27.2c-5.8 8.2-11.6 13.7-21.8 14.9s-20.7-.8-27.9-7.8a24.9 24.9 0 0 1 .9-36.7 31.8 31.8 0 0 1 16.4-7 29.4 29.4 0 0 1 15.8 1.9c3.8 1.8 7.1 4.5 11 6.1s8.9 1.4 11.5-1.8 1.9-7.3-.2-10.3-5.5-5-8.8-6.5a61.8 61.8 0 0 0-33.4-4.9c-9.4 1.3-18.7 4.8-25.8 11.1a40.3 40.3 0 0 0 4.8 64.3c11.4 7.2 25.6 8.3 38.9 6.5 36-4.9 46.8-44.1 70.2-66.3 11.6 12.9 18.3 29.4 23.5 46-7.2-.2-14.3-.1-21.5.1-2.8.1-5.8.4-8 2.1s-3.1 7.8-.2 10.3 5.6 2.2 8.6 2.3c11.4.3 22.8.3 34.2-.1 2.1 0 4.4-.2 6-1.6s2.2-5.9 1.5-9c-2.1-9.9-6.1-19.2-10.5-28.3z"/></svg>