<svg xmlns="http://www.w3.org/2000/svg" xmlns:xlink="http://www.w3.org/1999/xlink" id="Layer_1" viewBox="0 0 267.94 261.67" width="267.94" height="261.67"><defs><style>.cls-1{fill:url(#linear-gradient)}.cls-2{fill:url(#linear-gradient-2)}.cls-3{fill:url(#linear-gradient-3)}.cls-4{fill:#fff}.cls-5{fill:#8a53a1}</style><linearGradient id="linear-gradient" x1="-152.3" x2="-152.3" y1="493.95" y2="493.42" gradientTransform="matrix(385 0 0 -385 58772.06 190198.43)" gradientUnits="userSpaceOnUse"><stop offset="0" stop-color="#a04e9d"/><stop offset="1" stop-color="#8954a2"/></linearGradient><linearGradient id="linear-gradient-2" x1="-152.65" x2="-152.65" y1="489.82" y2="489.29" gradientTransform="matrix(51 0 0 -51 8011.84 24996.08)" gradientUnits="userSpaceOnUse"><stop offset="0" stop-color="#8c53a1"/><stop offset="1" stop-color="#9b4f9d"/></linearGradient><linearGradient id="linear-gradient-3" x1="-144.04" x2="-144.04" y1="490.84" y2="490.31" gradientTransform="matrix(20 0 0 -20 2906.56 10020.34)" xlink:href="#linear-gradient-2"/></defs><circle id="Ellipse_3" cx="137.91" cy="131.13" r="102.16" class="cls-1"/><circle id="Ellipse_6" cx="226.53" cy="28.7" r="13.53" class="cls-2"/><circle id="Ellipse_11" cx="25.67" cy="208.87" r="5.31" class="cls-3"/><g id="motion"><circle id="Ellipse_21" cx="138.12" cy="133" r="22.24" class="cls-4"/><path id="Path_3" d="M197.25 78.32V86h-11.18v-7.7h-5.72v8.94H96.11v-8.92h-6.46v7.91H79v-7.91h-6v106.11h5.72v-7h10.97v7h5.72V175h84.94v10.19h5.23v-7.46h11.87v7.46h5.72V78.32zM89 159.77h-9.77v-9.08H89zm0-25.47h-9.77v-9.08H89zm0-25.47h-9.77v-9.08H89zm92.58 51.36a6.1 6.1 0 0 1-6.1 6.09H102.7a6.08 6.08 0 0 1-6.08-6.07v-57.29a6.06 6.06 0 0 1 6-6.08h72.78a6.08 6.08 0 0 1 6.1 6.06v57.29zm16-.42h-9.74v-9.08h9.74zm0-25.47h-9.74v-9.08h9.74zm0-25.47h-9.74v-9.08h9.74z" class="cls-4"/></g><path id="Polygon_1" d="M151.44 133l-21.23 11.94v-23.88z" class="cls-5"/></svg>