<svg id="Layer_1" data-name="Layer 1" xmlns="http://www.w3.org/2000/svg" width="256" height="256" viewBox="0 0 256 256"><title>twitter</title><path d="M219.1,50.7,197,62.8,191.6,58A46,46,0,0,0,176,50.5c-15.8-4.1-31.9,2.8-43,14.3-7.4,7.7-4.5,22.2-6.5,32.3,0,0-20.4,3.5-43.7-10.6A220.8,220.8,0,0,1,44.2,57.2s-8,10.8-4.8,24.9,16.5,27.4,16.5,27.4l-17.3-3.3s1.2,21.7,15.7,29.8l14.4,8-16.8,2.8s7,15.9,16.4,21,22.2,5,22.2,5-14.9,16-31.4,16h-28s23.1,22.1,63.4,18.8c21.5-1.8,44.2-5.7,62.9-17.4s31.4-31.8,40.8-50.3c8.6-16.9,8.5-32.6,8.5-51l19.8-19.8L205,73.7Z" fill="#fff"/></svg>