<svg height="256" viewBox="0 0 256 256" width="256" xmlns="http://www.w3.org/2000/svg"><path d="m219.1 50.7-22.1 12.1-5.4-4.8a46 46 0 0 0 -15.6-7.5c-15.8-4.1-31.9 2.8-43 14.3-7.4 7.7-4.5 22.2-6.5 32.3 0 0-20.4 3.5-43.7-10.6a220.8 220.8 0 0 1 -38.6-29.3s-8 10.8-4.8 24.9 16.5 27.4 16.5 27.4l-17.3-3.3s1.2 21.7 15.7 29.8l14.4 8-16.8 2.8s7 15.9 16.4 21 22.2 5 22.2 5-14.9 16-31.4 16h-28s23.1 22.1 63.4 18.8c21.5-1.8 44.2-5.7 62.9-17.4s31.4-31.8 40.8-50.3c8.6-16.9 8.5-32.6 8.5-51l19.8-19.8-21.5 4.6z" fill="#fff"/></svg>