<svg id="Layer_1" data-name="Layer 1" xmlns="http://www.w3.org/2000/svg" width="256" height="256" viewBox="0 0 256 256"><title>vimeo</title><path d="M146.3,213.1s-23.2,15-36.5,7.3-20.7-17.2-33.6-64.1-18-67.9-24.5-67.9c-3.4,0-9.9,2.9-15.1,5.5a9.8,9.8,0,0,1-12.9-3.8l-2.4-4a5.6,5.6,0,0,1,.9-6.8c10.9-10.5,47.4-44.5,63.1-42,21.9,3.4,24,11.1,29.6,42.5s10.3,72.7,20.7,72.7,25.8-19.3,30.7-32.1,14.4-36.7,1.5-36.7H143.7s15.8-43.5,48.2-48.2c21-3,47.4,3,45,32.7s-5.5,51.6-38.1,91.6S146.3,213.1,146.3,213.1Z" fill="#fff"/></svg>